<svg width="64" height="64" xmlns="http://www.w3.org/2000/svg"><rect style="opacity:.2" width="50" height="32" x="7" y="24" rx="2.5" ry="2.5"/><path style="fill:#d4aa00" d="M7 44.5C7 45.885 8.115 47 9.5 47h45c1.385 0 2.5-1.115 2.5-2.5v-27c0-1.385-1.115-2.5-2.5-2.5H29v-2.5c0-1.385-1.115-2.5-2.5-2.5h-17A2.495 2.495 0 0 0 7 12.5"/><rect style="opacity:.2" width="50" height="32" x="7" y="22" rx="2.5" ry="2.5"/><rect style="fill:#e4e4e4" width="44" height="20" x="10" y="18" rx="2.5" ry="2.5"/><rect style="fill:#fc0" width="50" height="32" x="7" y="23" rx="2.5" ry="2.5"/><path style="opacity:.1;fill:#fff" d="M9.5 10A2.495 2.495 0 0 0 7 12.5v1C7 12.115 8.115 11 9.5 11h17c1.385 0 2.5 1.115 2.5 2.5v-1c0-1.385-1.115-2.5-2.5-2.5zM29 15v1h25.5c1.39 0 2.5 1.115 2.5 2.5v-1c0-1.385-1.11-2.5-2.5-2.5z"/><path style="fill:#1d344f" d="m28 31-2 2h-1c-1.662 0-3 1.115-3 2.5v9c0 1.385 1.338 2.5 3 2.5h14c1.662 0 3-1.115 3-2.5v-9c0-1.385-1.338-2.5-3-2.5h-1l-2-2h-8zm4 4a4 4 0 0 1 4 4 4 4 0 0 1-4 4 4 4 0 0 1-4-4 4 4 0 0 1 4-4z"/></svg>