<svg width="26mm" height="26mm" viewBox="0 0 26 26" xml:space="preserve" xmlns="http://www.w3.org/2000/svg"><path style="fill:#333;stroke-width:.0238926" d="M12.346 24.238A11.254 11.254 0 0 1 1.89 14.822a11.713 11.713 0 0 1 0-3.646 11.264 11.264 0 0 1 7.966-8.988 11.323 11.323 0 0 1 6.288 0 11.261 11.261 0 0 1 7.966 8.989c.19 1.158.19 2.486 0 3.645a11.239 11.239 0 0 1-2.292 5.175 11.243 11.243 0 0 1-9.472 4.241zm4.228-5.606.153-.46H17.862v-3.386l.63-1.88c.346-1.034.62-1.885.608-1.893-.011-.007-.292-.13-.623-.272l-.603-.26-.012-.688-.012-.688-1.598-.007-1.598-.006-1.687-.727-2.522-1.086a29.155 29.155 0 0 0-.839-.354c-.002.003-.163.484-.357 1.069a27.35 27.35 0 0 1-.377 1.093c-.018.023-.211.03-.82.03h-.798V13.932l-.18.537c-.098.295-.179.54-.179.544 0 .004.081.045.18.09l.179.081v2.988h6.942l1.098.475c.604.26 1.105.468 1.113.46.008-.009.083-.222.167-.475zm-.814-.187a8.566 8.566 0 0 0-.484-.205c-.05-.015-.09-.042-.09-.06 0-.026.11-.032.574-.032.315 0 .573.008.573.018-.002.055-.137.445-.156.45a3.74 3.74 0 0 1-.417-.17zm-5.484-2.343a5.398 5.398 0 0 1-.275-.06 12.095 12.095 0 0 0-.255-.058c-.085-.017-.43-.17-.644-.288-.468-.255-1.05-.79-1.366-1.256l-.076-.112V9.5h9.82l-.002 3.118a220.44 220.44 0 0 1-.014 3.118.234.234 0 0 1-.055-.024c-.085-.045-.877-.237-1.184-.286-.727-.118-1.542-.154-2.114-.096a7.775 7.775 0 0 0-2.266.54 4.46 4.46 0 0 1-.323.115l-.266.061c-.211.05-.804.084-.98.057zm.261-2.919a.296.296 0 0 1 .09-.018c.114-.009.375-.155.505-.283.207-.204.254-.28.313-.509a1.1 1.1 0 0 0-1.065-1.396.958.958 0 0 0-.625.196 1.14 1.14 0 0 0-.482.828c-.013.161.02.4.063.452.012.015.02.037.017.048-.005.024.03.11.051.128.008.006.048.06.09.12.073.11.222.245.327.3.116.06.332.131.363.12.017-.007.036-.004.043.007.013.021.275.028.31.008zm7.345-.936a64.4 64.4 0 0 1 .014-1.308c.008-.009.148.047.325.129.072.034.142.063.155.066.042.008.25.106.25.118 0 .006-.134.418-.3.915a72.645 72.645 0 0 0-.384 1.179l-.068.203zM9.297 9.051c.01-.023.112-.327.228-.675.282-.846.3-.895.338-.903.034-.007.26.087 1.5.623l1.314.566c.493.212.907.395.919.408.014.014-.771.023-2.147.023-2.057 0-2.169-.002-2.152-.042z"/></svg>