<svg height="26" width="26" xmlns="http://www.w3.org/2000/svg"><path d="M6 9.5c-1.105 0-2 .9-2 2v8c0 1.1.895 2 2 2h14c1.105 0 2-.9 2-2v-8c0-1.1-.895-2-2-2h-2z" fill="#f1c40f"/><path d="M6 12.5c-1.105 0-2 .9-2 2v8c0 1.1.895 2 2 2h14c1.105 0 2-.9 2-2v-8c0-1.1-.895-2-2-2h-2z" fill="#f39c12"/><path d="M13 1.5c-3.866 0-7 3.1-7 7h3c0-2.2 1.79-4 4-4 2.209 0 4 1.8 4 4h3c0-3.9-3.134-7-7-7z" fill="#bdc3c7"/><path d="M6 14.5v1h14v-1zm0 2v1h14v-1zm0 2v1h14v-1zm0 2v1h14v-1z" fill="#e67e22"/><path d="M6 9.5v1c0 .5.672 1 1.5 1S9 11 9 10.5v-1c0 .5-.672 1-1.5 1S6 10 6 9.5zM17 9.5v1c0 .5.672 1 1.5 1s1.5-.5 1.5-1v-1c0 .5-.672 1-1.5 1S17 10 17 9.5z" fill="#7f8c8d"/><path d="M13 2.938c-.351 0-.699.033-1.031.093a5.598 5.598 0 0 0-1.344.438c-.106.049-.21.1-.313.156-.131.072-.25.168-.374.25-.116.076-.236.134-.344.219-.14.11-.28.22-.406.343-.037.037-.059.088-.094.125-.169.175-.332.336-.469.532-.14.2-.27.406-.375.625-.004.008.004.022 0 .031a4.35 4.35 0 0 0-.281.75c-.253.584-.943 1-1.75 1-.06 0-.083.002-.125 0h-.032L6 8.5v2h3v-2c0-.276.04-.552.094-.813A3.982 3.982 0 0 1 13 4.5a4 4 0 0 1 4 4v2h3v-2l-.062-1h-.157c-.807 0-1.497-.416-1.75-1a4.332 4.332 0 0 0-.281-.75c-.004-.008.004-.023 0-.031a4.447 4.447 0 0 0-.375-.625c-.138-.196-.3-.357-.469-.532-.036-.038-.055-.088-.094-.125a4.831 4.831 0 0 0-.406-.343c-.104-.082-.232-.145-.344-.219-.122-.08-.244-.179-.374-.25a5.563 5.563 0 0 0-.313-.156 5.598 5.598 0 0 0-1.344-.438A5.832 5.832 0 0 0 13 2.938z" fill="#95a5a6"/></svg>